M48
; DRILL file {KiCad (7.0.0-rc1-156-g4c5a344629)} date Thu Feb 16 18:00:49 2023
; FORMAT={-:-/ absolute / inch / decimal}
; #@! TF.CreationDate,2023-02-16T18:00:49-05:00
; #@! TF.GenerationSoftware,Kicad,Pcbnew,(7.0.0-rc1-156-g4c5a344629)
; #@! TF.FileFunction,MixedPlating,1,2
FMAT,2
INCH
; #@! TA.AperFunction,Plated,PTH,ViaDrill
T1C0.0118
; #@! TA.AperFunction,Plated,PTH,ComponentDrill
T2C0.0394
; #@! TA.AperFunction,Plated,PTH,ComponentDrill
T3C0.0433
%
G90
G05
T1
X5.7087Y-4.2205
X5.9961Y-4.1535
X6.1417Y-3.811
X6.1693Y-4.0984
X6.2913Y-4.3189
X6.4291Y-3.811
X6.4291Y-4.0079
X6.4803Y-4.2244
X6.7283Y-4.0669
X6.7283Y-4.1457
X6.8189Y-4.3071
T2
X5.8449Y-3.7795
X5.9449Y-3.7795
X6.2008Y-4.1939
X6.2992Y-4.1939
X6.3961Y-4.4173
X6.3976Y-4.1939
X6.4961Y-4.4173
X6.5961Y-4.4173
X6.6961Y-4.4173
T3
G00X6.1102Y-3.8848
M15
G01X6.1102Y-3.9124
M16
G05
G00X6.4882Y-3.8848
M15
G01X6.4882Y-3.9124
M16
G05
T0
M30
